<svg id="visual" viewBox="0 0 960 540" width="960" height="540" xmlns="http://www.w3.org/2000/svg" xmlns:xlink="http://www.w3.org/1999/xlink" version="1.1"><rect x="0" y="0" width="960" height="540" fill="#002233"></rect><path d="M0 34L20 35.5C40 37 80 40 120 40.5C160 41 200 39 240 37.5C280 36 320 35 360 36C400 37 440 40 480 40.7C520 41.3 560 39.7 600 39.5C640 39.3 680 40.7 720 41.7C760 42.7 800 43.3 840 41.7C880 40 920 36 940 34L960 32L960 0L940 0C920 0 880 0 840 0C800 0 760 0 720 0C680 0 640 0 600 0C560 0 520 0 480 0C440 0 400 0 360 0C320 0 280 0 240 0C200 0 160 0 120 0C80 0 40 0 20 0L0 0Z" fill="#fa7268"></path><path d="M0 28L20 27.8C40 27.7 80 27.3 120 27.5C160 27.7 200 28.3 240 29.2C280 30 320 31 360 31.5C400 32 440 32 480 32C520 32 560 32 600 31.2C640 30.3 680 28.7 720 29C760 29.3 800 31.7 840 33C880 34.3 920 34.7 940 34.8L960 35L960 0L940 0C920 0 880 0 840 0C800 0 760 0 720 0C680 0 640 0 600 0C560 0 520 0 480 0C440 0 400 0 360 0C320 0 280 0 240 0C200 0 160 0 120 0C80 0 40 0 20 0L0 0Z" fill="#f16367"></path><path d="M0 26L20 25C40 24 80 22 120 22C160 22 200 24 240 24.5C280 25 320 24 360 24.7C400 25.3 440 27.7 480 27.3C520 27 560 24 600 23.2C640 22.3 680 23.7 720 25.2C760 26.7 800 28.3 840 27.7C880 27 920 24 940 22.5L960 21L960 0L940 0C920 0 880 0 840 0C800 0 760 0 720 0C680 0 640 0 600 0C560 0 520 0 480 0C440 0 400 0 360 0C320 0 280 0 240 0C200 0 160 0 120 0C80 0 40 0 20 0L0 0Z" fill="#e85467"></path><path d="M0 24L20 22.3C40 20.7 80 17.3 120 16.5C160 15.7 200 17.3 240 18.2C280 19 320 19 360 18C400 17 440 15 480 14.5C520 14 560 15 600 16.7C640 18.3 680 20.7 720 21.5C760 22.3 800 21.7 840 21.5C880 21.3 920 21.7 940 21.8L960 22L960 0L940 0C920 0 880 0 840 0C800 0 760 0 720 0C680 0 640 0 600 0C560 0 520 0 480 0C440 0 400 0 360 0C320 0 280 0 240 0C200 0 160 0 120 0C80 0 40 0 20 0L0 0Z" fill="#de4467"></path><path d="M0 10L20 10.3C40 10.7 80 11.3 120 11.2C160 11 200 10 240 10.2C280 10.3 320 11.7 360 13C400 14.3 440 15.7 480 15.2C520 14.7 560 12.3 600 11.5C640 10.7 680 11.3 720 11.5C760 11.7 800 11.3 840 11.7C880 12 920 13 940 13.5L960 14L960 0L940 0C920 0 880 0 840 0C800 0 760 0 720 0C680 0 640 0 600 0C560 0 520 0 480 0C440 0 400 0 360 0C320 0 280 0 240 0C200 0 160 0 120 0C80 0 40 0 20 0L0 0Z" fill="#d23467"></path><path d="M0 10L20 9.2C40 8.3 80 6.7 120 5.5C160 4.3 200 3.7 240 3.5C280 3.3 320 3.7 360 4.3C400 5 440 6 480 7C520 8 560 9 600 9.5C640 10 680 10 720 9.7C760 9.3 800 8.7 840 7.7C880 6.7 920 5.3 940 4.7L960 4L960 0L940 0C920 0 880 0 840 0C800 0 760 0 720 0C680 0 640 0 600 0C560 0 520 0 480 0C440 0 400 0 360 0C320 0 280 0 240 0C200 0 160 0 120 0C80 0 40 0 20 0L0 0Z" fill="#c62368"></path></svg>