<svg id="visual" viewBox="0 0 960 540" width="960" height="540" xmlns="http://www.w3.org/2000/svg" xmlns:xlink="http://www.w3.org/1999/xlink" version="1.1"><rect x="0" y="0" width="960" height="540" fill="#002233"></rect><path d="M895 540L894.3 528.8C893.7 517.7 892.3 495.3 891.7 472.8C891 450.3 891 427.7 893.2 405.2C895.3 382.7 899.7 360.3 900.2 337.8C900.7 315.3 897.3 292.7 894.5 270.2C891.7 247.7 889.3 225.3 892 202.8C894.7 180.3 902.3 157.7 903.5 135.2C904.7 112.7 899.3 90.3 898.3 67.8C897.3 45.3 900.7 22.7 902.3 11.3L904 0L960 0L960 11.3C960 22.7 960 45.3 960 67.8C960 90.3 960 112.7 960 135.2C960 157.7 960 180.3 960 202.8C960 225.3 960 247.7 960 270.2C960 292.7 960 315.3 960 337.8C960 360.3 960 382.7 960 405.2C960 427.7 960 450.3 960 472.8C960 495.3 960 517.7 960 528.8L960 540Z" fill="#fa7268"></path><path d="M893 540L894 528.8C895 517.7 897 495.3 900.8 472.8C904.7 450.3 910.3 427.7 909.5 405.2C908.7 382.7 901.3 360.3 901.3 337.8C901.3 315.3 908.7 292.7 909 270.2C909.3 247.7 902.7 225.3 900 202.8C897.3 180.3 898.7 157.7 902.2 135.2C905.7 112.7 911.3 90.3 912.3 67.8C913.3 45.3 909.7 22.7 907.8 11.3L906 0L960 0L960 11.3C960 22.7 960 45.3 960 67.8C960 90.3 960 112.7 960 135.2C960 157.7 960 180.3 960 202.8C960 225.3 960 247.7 960 270.2C960 292.7 960 315.3 960 337.8C960 360.3 960 382.7 960 405.2C960 427.7 960 450.3 960 472.8C960 495.3 960 517.7 960 528.8L960 540Z" fill="#f16367"></path><path d="M911 540L911.7 528.8C912.3 517.7 913.7 495.3 915.7 472.8C917.7 450.3 920.3 427.7 918.7 405.2C917 382.7 911 360.3 908 337.8C905 315.3 905 292.7 906.2 270.2C907.3 247.7 909.7 225.3 910.2 202.8C910.7 180.3 909.3 157.7 909.2 135.2C909 112.7 910 90.3 912.5 67.8C915 45.3 919 22.7 921 11.3L923 0L960 0L960 11.3C960 22.7 960 45.3 960 67.8C960 90.3 960 112.7 960 135.2C960 157.7 960 180.3 960 202.8C960 225.3 960 247.7 960 270.2C960 292.7 960 315.3 960 337.8C960 360.3 960 382.7 960 405.2C960 427.7 960 450.3 960 472.8C960 495.3 960 517.7 960 528.8L960 540Z" fill="#e85467"></path><path d="M931 540L929.5 528.8C928 517.7 925 495.3 924.5 472.8C924 450.3 926 427.7 925.3 405.2C924.7 382.7 921.3 360.3 922.2 337.8C923 315.3 928 292.7 929.7 270.2C931.3 247.7 929.7 225.3 930.2 202.8C930.7 180.3 933.3 157.7 932 135.2C930.7 112.7 925.3 90.3 924.7 67.8C924 45.3 928 22.7 930 11.3L932 0L960 0L960 11.3C960 22.7 960 45.3 960 67.8C960 90.3 960 112.7 960 135.2C960 157.7 960 180.3 960 202.8C960 225.3 960 247.7 960 270.2C960 292.7 960 315.3 960 337.8C960 360.3 960 382.7 960 405.2C960 427.7 960 450.3 960 472.8C960 495.3 960 517.7 960 528.8L960 540Z" fill="#de4467"></path><path d="M932 540L934.2 528.8C936.3 517.7 940.7 495.3 942.3 472.8C944 450.3 943 427.7 941.5 405.2C940 382.7 938 360.3 936.3 337.8C934.7 315.3 933.3 292.7 933.8 270.2C934.3 247.7 936.7 225.3 937 202.8C937.3 180.3 935.7 157.7 936.2 135.2C936.7 112.7 939.3 90.3 938.5 67.8C937.7 45.3 933.3 22.7 931.2 11.3L929 0L960 0L960 11.3C960 22.7 960 45.3 960 67.8C960 90.3 960 112.7 960 135.2C960 157.7 960 180.3 960 202.8C960 225.3 960 247.7 960 270.2C960 292.7 960 315.3 960 337.8C960 360.3 960 382.7 960 405.2C960 427.7 960 450.3 960 472.8C960 495.3 960 517.7 960 528.8L960 540Z" fill="#d23467"></path><path d="M945 540L945.5 528.8C946 517.7 947 495.3 947.2 472.8C947.3 450.3 946.7 427.7 946.3 405.2C946 382.7 946 360.3 946 337.8C946 315.3 946 292.7 945.8 270.2C945.7 247.7 945.3 225.3 945.8 202.8C946.3 180.3 947.7 157.7 947.8 135.2C948 112.7 947 90.3 947 67.8C947 45.3 948 22.7 948.5 11.3L949 0L960 0L960 11.3C960 22.7 960 45.3 960 67.8C960 90.3 960 112.7 960 135.2C960 157.7 960 180.3 960 202.8C960 225.3 960 247.7 960 270.2C960 292.7 960 315.3 960 337.8C960 360.3 960 382.7 960 405.2C960 427.7 960 450.3 960 472.8C960 495.3 960 517.7 960 528.8L960 540Z" fill="#c62368"></path></svg>