<svg id="visual" viewBox="0 0 960 540" width="960" height="540" xmlns="http://www.w3.org/2000/svg" xmlns:xlink="http://www.w3.org/1999/xlink" version="1.1"><rect x="0" y="0" width="960" height="540" fill="#002233"></rect><path d="M0 33L26.7 43C53.3 53 106.7 73 160 78C213.3 83 266.7 73 320 72.3C373.3 71.7 426.7 80.3 480 85.7C533.3 91 586.7 93 640 99C693.3 105 746.7 115 800 105.5C853.3 96 906.7 67 933.3 52.5L960 38L960 0L933.3 0C906.7 0 853.3 0 800 0C746.7 0 693.3 0 640 0C586.7 0 533.3 0 480 0C426.7 0 373.3 0 320 0C266.7 0 213.3 0 160 0C106.7 0 53.3 0 26.7 0L0 0Z" fill="#3DB2FF" stroke-linecap="round" stroke-linejoin="miter"></path></svg>